<svg xmlns="http://www.w3.org/2000/svg" width="52" height="52" fill="none" viewBox="0 0 52 52">
    <path fill="#FFC833" d="M35.788 12.819c-1.45-.287-3.743-.149-5.088-.004-.218.024-.316.28-.175.446.094.111.26.131.396.08.885-.327 3.163-.215 4.63-.076.321.03.651.23.92.408.105.069.217.136.321.196.153.087.331.114.505.084l2.53-.442c.099-.017.206-.043.263-.126.088-.13-.048-.248-.147-.3-.848-.32-2.434-.465-3.12-.497-.35-.005-.631.147-.8.219-.075.031-.156.027-.235.012zM14.285 14.618c1.382-.524 3.666-.769 5.017-.85.218-.012.358.224.246.412-.074.125-.234.172-.377.144-.928-.175-3.155.313-4.578.694-.312.084-.604.336-.84.556-.092.085-.191.17-.284.246-.136.112-.308.168-.483.167l-2.57-.015c-.1 0-.21-.008-.279-.08-.108-.114.005-.253.095-.32.783-.458 2.322-.864 2.994-1.01.344-.063.646.04.826.083.078.019.157.002.233-.027z"/>
    <path fill="#FBC120" d="M23.713 3.833c-1.374 1.026-1.78 3.391-1.553 4.656.095.527.631.724 1.165.68l2.342-.197c.838-.07 1.592-.661 1.492-1.496-.185-1.535-1.25-3.06-2.27-3.697-.364-.228-.831-.204-1.176.054z"/>
    <path fill="#FFE80B" d="M23.61 4.326c-.264 1.193-.264 2.893-.134 3.956.069.566.573.872 1.14.825.711-.06 1.285-.621 1.224-1.332-.104-1.239-.476-2.588-.882-3.53-.336-.78-1.165-.748-1.348.08z"/>
    <path fill="#03242D" d="M19.981 16.01c.421 1.787.922 6.94 1.058 8.403.023.249.139.478.325.645l4.066 3.634c.413.37 1.05.322 1.405-.104l3.54-4.264c.172-.208.25-.477.224-.747-.187-1.86-.362-5.886-.435-7.923-.004-.093.007-.184.028-.275.42-1.775.355-4.328.317-5.184-.009-.188-.074-.367-.2-.506-.97-1.072-2.718-1.758-3.71-2.004-.175-.044-.338-.128-.48-.238-1.293-.986-2.6-.28-3.232.327-.1.096-.212.18-.338.24-1.665.784-2.754 1.843-3.25 2.476-.14.178-.187.406-.157.63.159 1.194.49 3.403.84 4.89z"/>
    <path fill="#F5B811" d="M28.328 20.14c-.169-.33-.783-3.57-1.127-5.46-.044-.244-.17-.47-.373-.611-1.935-1.332-3.898.091-3.807 1.176.077.914-.005 4.066-.055 5.527.045.959-1.082 3-1.763 4.086-.09.142-.146.301-.164.468l-.367 3.423c-.02.177-.086.345-.169.502-.82 1.557-.684 5.08-.502 6.725 1.028 10.037 5.793 11.648 8.047 11.199 5.087-.426 5.888-8.408 5.653-12.346-.12-3.766-1.056-5.73-1.696-6.472-.164-.19-.316-.398-.38-.64l-.915-3.471c-.058-.222-.189-.416-.357-.57-1.442-1.322-1.813-3.12-2.025-3.537z"/>
    <path fill="#FF9C06" d="M28.148 20.152c-.16-.331-.756-3.588-1.088-5.477-.04-.235-.157-.455-.349-.596-1.823-1.344-3.66.069-3.57 1.154.077.914.017 4.064-.023 5.524.05 1.027-1.153 3.287-1.762 4.29-.753 1.162 2.76 2.442 3.98 2.845.261.086.541.06.786-.066l2.473-1.263c.183-.094.335-.238.438-.415l.841-1.45c.259-.446.153-1.007-.178-1.403-1.057-1.265-1.365-2.766-1.548-3.143z"/>
    <path fill="#013A4B" d="M22.009 37.66c-.396-2.106-.323-4.32-.175-5.738.057-.548.615-.87 1.132-.683l4.317 1.565c.304.11.644.047.887-.165l2.086-1.818c.419-.365 1.035-.241 1.171.297.522 2.062.65 5.804.656 5.878.01.118 0 .335-.014.546-.019.27-.124.561-.218.818l-.006.018c-.198.546-.479 1.52-.632 2.082-.538 1.687-3.045 2.188-4.232 2.228-2.502-.04-3.522-1.207-3.719-1.786-.081-.26-.336-.918-.702-1.458-.367-.54-.52-1.414-.551-1.784z"/>
    <path fill="#ED1B2F" d="M27.999 47.913c-1.546.13-2.371-2.18-2.477-3.452 1.42.77 3.422.038 4.251-.356.317 2.975-1.1 3.751-1.774 3.808z"/>
    <path fill="#F44336" d="M14.55 18.208l-.357-.679c-.063-.12.025-.263.16-.26l.101.001c.03 0 .06-.007.087-.02l2.82-1.513c.346-.136.406-.495.392-.657-.153-.98.983-1.915 1.582-2.268.009-.005.017-.01.026-.013 1.525-.587 2.52-1.851 2.844-2.438.01-.02.016-.039.02-.06.058-.291.359-.525.532-.623.02-.012.043-.018.067-.02l3.846-.322h.035c.352.05.612.395.7.563.593 1.128 2.38 1.78 3.198 1.963.86.152 2.054 1.078 1.965 1.62-.066.41.2.795.365.964.02.02.045.034.072.042l3.205.921.133.026c.1.02.163.12.138.219l-.181.71c-.033.13-.194.173-.287.078-.02-.02-.046-.036-.074-.044-1.081-.301-3.213-.885-3.425-.902-.176-.015-.351.106-.455.204-.039.037-.09.06-.144.06l-4.245-.12c-.035-.002-.069.007-.098.025-.267.16-.967.548-2.219.653-1.245.104-2.096-.065-2.41-.239-.045-.025-.097-.039-.148-.028l-4 .8c-.078.016-.16-.025-.228-.067-.156-.097-.44-.142-.61-.155-.02-.001-.038 0-.057.006-.554.169-2.2 1.108-3.101 1.644-.088.052-.202.02-.25-.07z"/>
    <path fill="#FBD254" d="M27.404 9.9l-5.184.433c.015-.25.385-.553.568-.672l3.9-.326c.284-.024.596.366.716.564z"/>
    <path fill="#FFBD9A" d="M33.92 16.846c-.317 2.44-2.001 5.055-3.013 6.331-.154.194-.165.466-.02.666l.655.903c.206.285.627.296.848.022l.41-.51c1.362-1.649 2.363-5.537 2.694-7.276.223-1.008.137-1.77.058-2.063-.007-.026-.017-.05-.029-.074-.443-.855-1.518-.816-2.006-.687-.22.05-.32.308-.35.469-.007.034-.006.07-.004.105.031.43-.015.682-.09.82-.097.184-.447.232-.392.433.005.021.011.044.013.071.008.091.545.275.93.39.115.036.225.103.268.216.035.088.036.155.029.184zM16.943 18.254c.72 2.353 2.814 4.651 4.024 5.742.184.165.24.431.13.653l-.495 1c-.156.314-.57.395-.832.162l-.49-.435c-1.617-1.4-3.25-5.068-3.865-6.727-.388-.957-.43-1.722-.4-2.025.002-.026.007-.052.015-.077.296-.917 1.362-1.057 1.864-1.011.225.013.366.25.423.404.012.033.018.068.022.103.04.43.129.67.224.794.127.165.48.154.46.361-.002.022-.004.046-.002.073.008.09-.492.361-.851.54-.108.053-.205.138-.23.256-.019.093-.009.159.003.187zM24.634 21.148c-.348.204-.523.49-.601.747-.086.28.123.534.397.638l1.212.459c.234.088.495.063.707-.07l.965-.6c.266-.166.431-.486.276-.76-.208-.365-.557-.569-.791-.65-.054-.02-.111-.024-.166-.038-.276-.072-.62-.41-.77-.585-.066-.072-.142-.09-.213-.08-.17.02-.259.205-.368.335-.132.156-.329.347-.477.483-.052.047-.11.086-.171.121z"/>
    <path fill="#03242D" d="M26.842 35.69c-4.824.369-6.564-5.92-6.831-9.11l1.285-1.18 5.304 3.127 3.957-3.902 1.684.93c.635 8.015-3.334 10.097-5.399 10.136z"/>
    <path fill="#43419E" d="M30.44 23.21c-3.665 4.411-7.613 2.347-9.129.763-1.184.35-1.869 1.48-2.063 2.003.094.277 1.63 1.35 2.386 1.852.553.204.868.954.957 1.304.18.449.559 2.764.725 3.866 2.94 1.86 5.716.399 6.736-.564-.057-1.102.054-3.084.117-3.937-.134-.738.33-1.38.579-1.61.452-.145 1.59-1.427 2.104-2.05-.763-1.436-1.926-1.683-2.412-1.628z"/>
    <rect width="6.848" height="3.291" x="22.406" y="23.211" fill="#C2C4C6" rx="1.645" transform="rotate(-4.7843 22.4062 23.2109)"/>
    <ellipse cx="25.956" cy="24.565" fill="#DE3926" rx="2.713" ry="3.38" transform="rotate(-4.7843 25.9557 24.5654)"/>
    <rect width="14.408" height="9.249" x="19.72" y="36.425" fill="#DE3926" stroke="#000" stroke-width=".267" rx=".934" transform="rotate(-4.7843 19.7202 36.4245)"/>
    <path fill="#000" d="M31.083 44.59c.075.207.304.316.512.24.208-.074.317-.303.242-.51l-.754.27zm-1.13-9.095c.02 1.142.123 2.908.309 4.635.184 1.714.454 3.434.821 4.46l.754-.27c-.331-.926-.595-2.559-.78-4.276-.183-1.705-.284-3.447-.304-4.563l-.8.014zM24.276 45.16c-.04.218-.247.363-.465.324-.218-.04-.362-.247-.323-.465l.788.141zm-.397-9.155c.17 1.13.362 2.888.465 4.62.104 1.722.123 3.464-.069 4.535l-.787-.14c.173-.968.16-2.622.058-4.346-.103-1.712-.293-3.446-.459-4.55l.792-.12z"/>
    <path stroke="#000" stroke-width=".711" d="M23.93 40.846l6.558-.55"/>
    <path stroke="#000" stroke-linecap="round" stroke-width="1.334" d="M26.182 40.568l2.127-.178"/>
</svg>
